<svg width="42" height="42" viewBox="0 0 42 42" fill="none" xmlns="http://www.w3.org/2000/svg">
<path d="M30.1875 0H11.8125C5.25 0 0 5.25 0 11.8125V30.1875C0 36.75 5.25 42 11.8125 42H30.1875C36.75 42 42 36.75 42 30.1875V11.8125C42 5.25 36.75 0 30.1875 0Z" fill="#3A559F"/>
<path d="M34.7258 20.5476C34.4635 20.2891 34.0699 20.0307 33.6764 20.0307H27.1176V15.1199C27.1176 14.9907 27.2488 14.8614 27.38 14.8614H32.3647C33.1517 14.8614 33.6764 14.3445 33.6764 13.5691V9.69221C33.6764 8.91683 33.1517 8.3999 32.3647 8.3999H27.1176C22.7888 8.3999 20.5588 11.8891 20.5588 16.1537V20.0307H15.3118C14.5247 20.0307 14 20.5476 14 21.323V25.1999C14 25.9753 14.5247 26.4922 15.3118 26.4922H20.5588V41.9999H27.1176V26.4922H31.0529C31.5776 26.4922 32.1023 26.2337 32.2335 25.7168L34.857 21.8399C35.1193 21.4522 34.9882 20.9353 34.7258 20.5476Z" fill="white"/>
</svg>
