<svg width="48" height="48" viewBox="0 0 48 48" fill="none" xmlns="http://www.w3.org/2000/svg">
<path d="M31.1124 29.0954L30.2014 30.0544C30.2014 30.0544 28.0362 32.334 22.1262 26.1118C16.2162 19.8897 18.3814 17.6101 18.3814 17.6101L18.955 17.0062C20.3682 15.5185 20.5014 13.1299 19.2685 11.3862L16.7465 7.81922C15.2206 5.661 12.2719 5.3759 10.5229 7.21728L7.3837 10.5223C6.51646 11.4353 5.9353 12.6189 6.00578 13.9319C6.18608 17.2909 7.62142 24.518 15.6307 32.9504C24.1242 41.8924 32.0936 42.2478 35.3526 41.9262C36.3834 41.8244 37.2798 41.2686 38.0022 40.508L40.8434 37.5168C42.7612 35.4978 42.2204 32.0364 39.7666 30.624L35.9456 28.4246C34.3344 27.4972 32.3716 27.7696 31.1124 29.0954Z" fill="#4B8621"/>
<path d="M26.519 3.75967C26.6514 2.94189 27.4244 2.38715 28.2422 2.51953C28.2928 2.52923 28.4558 2.55967 28.541 2.57867C28.7118 2.61669 28.9498 2.67519 29.2466 2.76165C29.8402 2.93453 30.6694 3.21935 31.6646 3.67561C33.6572 4.58912 36.3088 6.18712 39.0604 8.93872C41.812 11.6903 43.41 14.3419 44.3234 16.3345C44.7798 17.3297 45.0646 18.1589 45.2374 18.7525C45.3238 19.0493 45.3824 19.2874 45.4204 19.458C45.4394 19.5434 45.4534 19.6119 45.463 19.6625L45.4746 19.7249C45.6068 20.5426 45.0572 21.3478 44.2394 21.4802C43.424 21.6122 42.6558 21.06 42.5202 20.2462C42.516 20.2242 42.5044 20.1656 42.4922 20.1102C42.4674 19.9994 42.4248 19.8238 42.3572 19.5914C42.2218 19.1268 41.9868 18.4361 41.5964 17.5848C40.8168 15.8841 39.4148 13.5358 36.939 11.06C34.4634 8.58432 32.115 7.18234 30.4144 6.40268C29.563 6.01236 28.8724 5.7773 28.4076 5.64194C28.1754 5.57429 27.8834 5.50727 27.7726 5.48261C26.9586 5.34695 26.387 4.5751 26.519 3.75967Z" fill="#4B8621"/>
<path fill-rule="evenodd" clip-rule="evenodd" d="M26.9714 10.6586C27.199 9.86204 28.0292 9.4008 28.8258 9.62838L28.4138 11.0707C28.8258 9.62838 28.8258 9.62838 28.8258 9.62838L28.8288 9.62922L28.8318 9.6301L28.8384 9.63204L28.854 9.63668L28.8936 9.649C28.9236 9.65864 28.9614 9.6712 29.0062 9.68714C29.096 9.71902 29.2148 9.76434 29.3604 9.82674C29.6518 9.95162 30.0498 10.1445 30.539 10.4339C31.5178 11.0132 32.8542 11.9756 34.4242 13.5455C35.9942 15.1155 36.9564 16.4519 37.5358 17.4308C37.8252 17.9198 38.018 18.3179 38.143 18.6093C38.2054 18.7549 38.2508 18.8736 38.2826 18.9635C38.2986 19.0084 38.311 19.046 38.3208 19.0762L38.333 19.1158L38.3376 19.1313L38.3396 19.1379L38.3404 19.141C38.3404 19.141 38.3414 19.1439 36.899 19.556L38.3414 19.1439C38.569 19.9404 38.1076 20.7706 37.3112 20.9982C36.5214 21.2238 35.6984 20.7724 35.4626 19.9883L35.4552 19.9667C35.4446 19.9366 35.4226 19.8775 35.3856 19.7911C35.3116 19.6184 35.1774 19.3359 34.9542 18.9588C34.5082 18.2053 33.7028 17.0668 32.3028 15.6669C30.903 14.267 29.7644 13.4616 29.011 13.0156C28.6338 12.7924 28.3514 12.6582 28.1786 12.5842C28.0922 12.5472 28.033 12.5251 28.003 12.5144L27.9814 12.507C27.1974 12.2713 26.7458 11.4484 26.9714 10.6586Z" fill="#4B8621"/>
</svg>
