<svg width="138" height="48" viewBox="0 0 138 48" fill="none" xmlns="http://www.w3.org/2000/svg">
<path d="M10.6571 20.4343H35.6857C39.9371 20.4343 43.3657 23.8629 43.3657 28.1143V35.7943H2.90857V28.1829C2.90857 23.9314 6.40571 20.4343 10.6571 20.4343Z" fill="#64B829"/>
<path d="M43.8457 36.3429H2.42859V28.1829C2.42859 23.6571 6.13145 20.0229 10.5886 20.0229H35.6172C40.1429 20.0229 43.7772 23.7257 43.7772 28.1829V36.3429H43.8457ZM3.38859 35.3829H42.8857V28.1829C42.8857 24.2057 39.6629 20.9829 35.6857 20.9829H10.6572C6.68002 20.9829 3.45716 24.2057 3.45716 28.1829V35.3829H3.38859Z" fill="#141515"/>
<path d="M19.16 35.8628H2.90857V31.1314C4.00571 27.5657 7.16 25.0286 10.8629 25.0286C15.5257 25.0286 19.2971 29.0057 19.2971 33.9428C19.3657 34.6286 19.2971 35.2457 19.16 35.8628Z" fill="#B2D577"/>
<path d="M19.5714 36.3429H2.42859V30.9943C3.66287 27.1543 7.02287 24.5486 10.8629 24.5486C15.8 24.5486 19.7772 28.8 19.7772 34.0114C19.7772 34.6972 19.7086 35.3143 19.5714 36V36.3429ZM3.38859 35.3829H18.68C18.7486 34.9029 18.8172 34.4229 18.8172 34.0114C18.8172 29.3486 15.2514 25.5772 10.8629 25.5772C7.50287 25.5772 4.48573 27.84 3.38859 31.2686V35.3829Z" fill="#141515"/>
<path d="M43.3658 29.3486V35.8629H26.9772C26.8401 35.2457 26.7715 34.6286 26.7715 34.0114C26.7715 28.8 30.7486 24.6857 35.6172 24.6857C38.9772 24.6857 41.7886 26.5372 43.3658 29.3486Z" fill="#B2D577"/>
<path d="M43.8458 36.3429H26.5658L26.4972 35.9314C26.3601 35.3143 26.2915 34.6286 26.2915 33.9429C26.2915 28.5257 30.4744 24.1371 35.6172 24.1371C38.9772 24.1371 42.0629 26.0571 43.7772 29.0743L43.8458 29.2114V36.3429ZM27.3886 35.3829H42.8858V29.4857C41.3772 26.8114 38.6344 25.1657 35.6858 25.1657C31.0915 25.1657 27.3201 29.1429 27.3201 34.0114C27.2515 34.4229 27.3201 34.9029 27.3886 35.3829Z" fill="#141515"/>
<path d="M2.90857 32.5029H43.2971V35.8629H2.90857V32.5029Z" fill="#97CA1B"/>
<path d="M43.8457 36.3429H2.42859V32.0229H43.8457V36.3429ZM3.38859 35.3829H42.8857V32.9829H3.38859V35.3829Z" fill="#141515"/>
<path d="M21.9714 9.12C29.1028 9.12 35.3428 14.1257 36.3714 20.5029H10.5885C10.1771 20.5029 9.76568 20.5029 9.35425 20.5714C9.35425 14.1943 14.84 9.12 21.9714 9.12Z" fill="#97CA1B"/>
<path d="M8.87427 21.12V20.5714C8.87427 17.5543 10.04 14.6743 12.2343 12.48C14.7028 10.0114 18.2 8.64001 21.9714 8.64001C29.24 8.64001 35.8228 13.7829 36.8514 20.4343L36.92 21.0514L36.3028 20.9829H10.5886C10.1771 20.9829 9.83427 20.9829 9.42284 21.0514L8.87427 21.12ZM21.9714 9.60001C18.4057 9.60001 15.1828 10.8343 12.92 13.1657C11.0686 15.0172 9.97141 17.4172 9.90284 20.0229H35.8228C34.52 14.1257 28.6228 9.60001 21.9714 9.60001Z" fill="#141515"/>
<path d="M34.0399 20.5029H11.3428C12.5085 15.4971 16.7599 11.8629 22.1085 11.8629C27.4571 11.8629 32.1885 15.4971 34.0399 20.5029Z" fill="#90CED9"/>
<path d="M34.7257 20.9828H10.7257L10.8629 20.3657C12.0971 14.9486 16.6229 11.3828 22.1086 11.3828C27.5257 11.3828 32.5314 14.9486 34.52 20.3657L34.7257 20.9828ZM11.96 20.0228H33.2857C31.3657 15.36 26.9086 12.3428 22.1086 12.3428C17.3086 12.3428 13.3314 15.36 11.96 20.0228Z" fill="#141515"/>
<path d="M21.0115 20.5029H18.9543V12.2743C19.5715 12.0686 20.2572 11.9314 21.0115 11.8629V20.5029Z" fill="#97CA1B"/>
<path d="M21.4915 20.9828H18.4744V11.9314L18.8172 11.8628C19.5029 11.6571 20.1887 11.52 20.9429 11.4514L21.4915 11.3828V20.9828ZM19.5029 20.0228H20.5315V12.48L19.5029 12.6857V20.0228Z" fill="#141515"/>
<path d="M11.4114 38.88C14.0857 38.88 16.28 36.6857 16.28 34.0114C16.28 31.3371 14.0857 29.1429 11.4114 29.1429C8.73713 29.1429 6.54285 31.3371 6.54285 34.0114C6.54285 36.6857 8.73713 38.88 11.4114 38.88Z" fill="#A1A69C"/>
<path d="M11.4114 39.36C8.46287 39.36 6.06287 36.96 6.06287 34.0114C6.06287 31.0628 8.46287 28.6628 11.4114 28.6628C14.36 28.6628 16.76 31.0628 16.76 34.0114C16.76 36.96 14.36 39.36 11.4114 39.36ZM11.4114 29.5543C9.01144 29.5543 7.02287 31.5428 7.02287 33.9428C7.02287 36.3428 9.01144 38.3314 11.4114 38.3314C13.8114 38.3314 15.8 36.3428 15.8 33.9428C15.8 31.5428 13.8114 29.5543 11.4114 29.5543Z" fill="#141515"/>
<path d="M9.08008 34.0114C9.08008 34.6298 9.32571 35.2228 9.76294 35.66C10.2002 36.0972 10.7932 36.3428 11.4115 36.3428C12.0298 36.3428 12.6228 36.0972 13.0601 35.66C13.4973 35.2228 13.7429 34.6298 13.7429 34.0114C13.7429 33.3931 13.4973 32.8001 13.0601 32.3629C12.6228 31.9256 12.0298 31.68 11.4115 31.68C10.7932 31.68 10.2002 31.9256 9.76294 32.3629C9.32571 32.8001 9.08008 33.3931 9.08008 34.0114Z" fill="#DAD9B4"/>
<path d="M11.4114 36.7543C9.90283 36.7543 8.59998 35.52 8.59998 33.9429C8.59998 32.4343 9.83426 31.1314 11.4114 31.1314C12.92 31.1314 14.2228 32.3657 14.2228 33.9429C14.2228 35.52 12.92 36.7543 11.4114 36.7543ZM11.4114 32.16C10.3828 32.16 9.55998 32.9829 9.55998 34.0114C9.55998 35.04 10.3828 35.8629 11.4114 35.8629C12.44 35.8629 13.2628 35.04 13.2628 34.0114C13.1943 32.9829 12.44 32.16 11.4114 32.16Z" fill="#141515"/>
<path d="M35.2743 38.88C37.9486 38.88 40.1429 36.6857 40.1429 34.0114C40.1429 31.3371 37.9486 29.1429 35.2743 29.1429C32.6 29.1429 30.4058 31.3371 30.4058 34.0114C30.4058 36.6857 32.5315 38.88 35.2743 38.88Z" fill="#A1A69C"/>
<path d="M35.2744 39.36C32.3258 39.36 29.9258 36.96 29.9258 34.0114C29.9258 31.0628 32.3258 28.6628 35.2744 28.6628C38.2229 28.6628 40.6229 31.0628 40.6229 34.0114C40.6229 36.96 38.2229 39.36 35.2744 39.36ZM35.2744 29.5543C32.8744 29.5543 30.8858 31.5428 30.8858 33.9428C30.8858 36.3428 32.8744 38.3314 35.2744 38.3314C37.6744 38.3314 39.6629 36.3428 39.6629 33.9428C39.6629 31.5428 37.6744 29.5543 35.2744 29.5543Z" fill="#141515"/>
<path d="M32.9429 34.0114C32.9428 34.3176 33.0031 34.6208 33.1202 34.9037C33.2374 35.1866 33.4091 35.4437 33.6256 35.6602C33.8421 35.8767 34.0991 36.0485 34.382 36.1657C34.6649 36.2829 34.9681 36.3432 35.2743 36.3432C35.5805 36.3432 35.8837 36.2829 36.1666 36.1657C36.4495 36.0485 36.7065 35.8767 36.923 35.6602C37.1395 35.4437 37.3112 35.1866 37.4284 34.9037C37.5455 34.6208 37.6058 34.3176 37.6057 34.0114C37.6058 33.7052 37.5455 33.402 37.4284 33.1191C37.3112 32.8362 37.1395 32.5792 36.923 32.3626C36.7065 32.1461 36.4495 31.9743 36.1666 31.8572C35.8837 31.74 35.5805 31.6797 35.2743 31.6797C34.9681 31.6797 34.6649 31.74 34.382 31.8572C34.0991 31.9743 33.8421 32.1461 33.6256 32.3626C33.4091 32.5792 33.2374 32.8362 33.1202 33.1191C33.0031 33.402 32.9428 33.7052 32.9429 34.0114Z" fill="#DAD9B4"/>
<path d="M35.2743 36.7543C33.7657 36.7543 32.4629 35.52 32.4629 33.9429C32.4629 32.4343 33.6972 31.1314 35.2743 31.1314C36.7829 31.1314 38.0857 32.3657 38.0857 33.9429C38.0172 35.52 36.7829 36.7543 35.2743 36.7543ZM35.2743 32.16C34.2457 32.16 33.4229 32.9829 33.4229 34.0114C33.4229 35.04 34.2457 35.8629 35.2743 35.8629C36.3029 35.8629 37.1257 35.04 37.1257 34.0114C37.0572 32.9829 36.2343 32.16 35.2743 32.16Z" fill="#141515"/>
<path d="M20.0514 30.24C19.7771 30.24 19.5714 30.0343 19.5714 29.76V22.9714C19.5714 22.6971 19.7771 22.4914 20.0514 22.4914C20.3257 22.4914 20.5314 22.6971 20.5314 22.9714V29.76C20.5314 30.0343 20.3257 30.24 20.0514 30.24Z" fill="#141515"/>
<path d="M29.9943 18.5829H33.56C33.9029 18.5829 34.2457 18.8571 34.2457 19.2686V20.9829C34.2457 21.3257 33.9715 21.6686 33.56 21.6686H29.9943C29.6514 21.6686 29.3086 21.3943 29.3086 20.9829V19.2C29.3086 18.8571 29.6514 18.5829 29.9943 18.5829Z" fill="#DAE483"/>
<path d="M33.56 22.08H29.9943C29.3772 22.08 28.8286 21.5314 28.8286 20.9143V19.2C28.8286 18.5828 29.3772 18.0343 29.9943 18.0343H33.56C34.1772 18.0343 34.7258 18.5828 34.7258 19.2V20.9143C34.7258 21.5314 34.1772 22.08 33.56 22.08ZM29.9943 19.0628C29.8572 19.0628 29.7886 19.1314 29.7886 19.2686V20.9828C29.7886 21.12 29.8572 21.1886 29.9943 21.1886H33.56C33.6972 21.1886 33.7658 21.12 33.7658 20.9828V19.2C33.7658 19.0628 33.6972 18.9943 33.56 18.9943H29.9943V19.0628Z" fill="#141515"/>
<path d="M1.05713 32.2971H4.41713V33.8057H1.05713V32.2971Z" fill="#6E7377"/>
<path d="M4.48572 34.2857H1.05715C0.782863 34.2857 0.577148 34.08 0.577148 33.8057V32.2971C0.577148 32.0229 0.782863 31.8171 1.05715 31.8171H4.48572C4.76001 31.8171 4.96572 32.0229 4.96572 32.2971V33.8057C4.96572 34.08 4.69143 34.2857 4.48572 34.2857ZM1.53715 33.3257H3.93715V32.7771H1.53715V33.3257Z" fill="#141515"/>
<path d="M41.0343 28.5943H44.0514C44.5314 28.5943 44.9428 29.0057 44.9428 29.4857V29.9657C44.9428 30.4457 44.5314 30.8572 44.0514 30.8572H41.0343C40.5543 30.8572 40.1428 30.4457 40.1428 29.9657V29.4857C40.1428 28.9372 40.5543 28.5943 41.0343 28.5943Z" fill="#FFE638"/>
<path d="M44.0514 31.3371H41.0343C40.28 31.3371 39.6628 30.72 39.6628 29.9657V29.4857C39.6628 28.7314 40.28 28.1143 41.0343 28.1143H44.0514C44.8057 28.1143 45.4228 28.7314 45.4228 29.4857V29.9657C45.4228 30.72 44.8057 31.3371 44.0514 31.3371ZM41.0343 29.0743C40.8286 29.0743 40.6228 29.28 40.6228 29.4857V29.9657C40.6228 30.1714 40.8286 30.3771 41.0343 30.3771H44.0514C44.2571 30.3771 44.4628 30.1714 44.4628 29.9657V29.4857C44.4628 29.28 44.2571 29.0743 44.0514 29.0743H41.0343Z" fill="#141515"/>
<path d="M41.3086 26.2628C41.3086 26.6629 41.4675 27.0467 41.7504 27.3296C42.0334 27.6125 42.4171 27.7714 42.8172 27.7714C43.2173 27.7714 43.601 27.6125 43.8839 27.3296C44.1668 27.0467 44.3257 26.6629 44.3257 26.2628C44.3257 25.8627 44.1668 25.479 43.8839 25.1961C43.601 24.9132 43.2173 24.7543 42.8172 24.7543C42.4171 24.7543 42.0334 24.9132 41.7504 25.1961C41.4675 25.479 41.3086 25.8627 41.3086 26.2628Z" fill="#FCDD10"/>
<path d="M42.8172 28.2514C41.72 28.2514 40.8286 27.36 40.8286 26.2629C40.8286 25.1657 41.72 24.2743 42.8172 24.2743C43.9143 24.2743 44.8058 25.1657 44.8058 26.2629C44.8743 27.36 43.9143 28.2514 42.8172 28.2514ZM42.8172 25.2343C42.2686 25.2343 41.7886 25.7143 41.7886 26.2629C41.7886 26.8114 42.2686 27.2914 42.8172 27.2914C43.3658 27.2914 43.8458 26.8114 43.8458 26.2629C43.8458 25.7143 43.4343 25.2343 42.8172 25.2343Z" fill="#141515"/>
<path d="M22.7943 16.9371C22.6571 16.9371 22.52 16.8686 22.4514 16.8C22.2457 16.5943 22.2457 16.32 22.4514 16.1143L24.6457 13.92C24.8514 13.7143 25.1257 13.7143 25.3314 13.92C25.5371 14.1257 25.5371 14.4 25.3314 14.6057L23.1371 16.8C23.0685 16.9371 22.9314 16.9371 22.7943 16.9371Z" fill="#141515"/>
<path d="M23.1372 19.4743C23 19.4743 22.8629 19.4057 22.7943 19.3371C22.5886 19.1314 22.5886 18.8571 22.7943 18.6514L26.7714 14.5371C26.9772 14.3314 27.2514 14.3314 27.4572 14.5371C27.6629 14.7428 27.6629 15.0171 27.4572 15.2228L23.48 19.3371C23.4114 19.4743 23.2743 19.4743 23.1372 19.4743Z" fill="#141515"/>
<path d="M64.776 31.752H69.704V35H62.592C61.36 33.8427 60.4267 32.3773 59.792 30.604C59.1573 28.8307 58.84 27.0107 58.84 25.144C58.84 23.2587 59.1947 21.448 59.904 19.712C60.6133 17.976 61.668 16.5387 63.068 15.4H69.704V18.76H64.776C64.272 19.3387 63.8333 20.272 63.46 21.56C63.1053 22.848 62.928 24.08 62.928 25.256C62.928 26.432 63.1053 27.664 63.46 28.952C63.8333 30.24 64.272 31.1733 64.776 31.752ZM78.0926 28.532H75.0966C74.7046 29.0173 74.5086 29.624 74.5086 30.352C74.5086 31.08 74.714 31.6493 75.1246 32.06H78.0926V28.532ZM72.0726 20.692H79.0166C80.1366 21.364 80.874 22.1387 81.2286 23.016C81.5833 23.8747 81.7606 25.0507 81.7606 26.544V30.744C81.7606 32.2933 81.798 33.712 81.8726 35H78.6806L78.1766 33.992C77.4486 34.664 76.422 35 75.0966 35H73.3326C71.746 33.9547 70.9526 32.452 70.9526 30.492C70.9526 28.5133 71.7646 26.9547 73.3886 25.816H76.0206C76.7486 25.816 77.43 26.04 78.0646 26.488V25.088C78.0646 24.36 77.7473 23.8747 77.1126 23.632H72.0726V20.692ZM84.1968 35V20.692H86.8568L87.5568 22.204C88.3035 21.196 89.2462 20.692 90.3848 20.692H91.4768V24.444H87.9208V35H84.1968ZM97.5673 35V15.4H101.291V25.788H101.683L104.315 20.692H107.955L104.651 26.936L107.983 35H104.287L101.711 28.728H101.291V35H97.5673ZM109.489 35V20.692H113.185V35H109.489ZM109.489 15.4H113.185V19.18H109.489V15.4ZM126.423 35H123.595L123.091 33.992C122.68 34.3653 122.288 34.6267 121.915 34.776C121.56 34.9253 121.019 35 120.291 35H117.855C117.033 34.216 116.38 33.1893 115.895 31.92C115.428 30.6507 115.195 29.232 115.195 27.664C115.195 26.0773 115.428 24.7333 115.895 23.632C116.38 22.5307 117.061 21.5507 117.939 20.692H120.347C121.336 20.692 122.12 20.9533 122.699 21.476V15.4H126.423V35ZM122.699 23.632H120.011C119.32 24.808 118.975 26.2547 118.975 27.972C118.975 29.6707 119.311 31.0333 119.983 32.06H122.699V23.632ZM130.221 20.692H136.409V23.632H132.041L134.701 27.58C135.896 29.2787 136.559 30.4453 136.689 31.08C136.764 31.3787 136.801 31.6867 136.801 32.004C136.801 33.3293 136.307 34.328 135.317 35H128.177V32.06H133.301L130.305 27.664C130.175 27.4587 129.969 27.1693 129.689 26.796C129.428 26.4227 129.223 26.124 129.073 25.9C128.924 25.6573 128.821 25.48 128.765 25.368C128.709 25.256 128.635 25.116 128.541 24.948C128.448 24.7613 128.383 24.6027 128.345 24.472C128.271 24.1173 128.233 23.828 128.233 23.604C128.233 22.2413 128.896 21.2707 130.221 20.692Z" fill="#4B8621"/>
</svg>
