<svg width="42" height="42" viewBox="0 0 42 42" fill="none" xmlns="http://www.w3.org/2000/svg">
<path d="M27.2234 25.4585L26.4262 26.2976C26.4262 26.2976 24.5317 28.2922 19.3604 22.8478C14.1892 17.4035 16.0837 15.4089 16.0837 15.4089L16.5857 14.8804C17.8222 13.5787 17.9387 11.4887 16.8599 9.96293L14.6532 6.84182C13.318 4.95338 10.7379 4.70391 9.20753 6.31512L6.46073 9.207C5.7019 10.0059 5.19338 11.0415 5.25505 12.1904C5.41282 15.1296 6.66874 21.4533 13.6769 28.8316C21.1087 36.6559 28.0819 36.9668 30.9335 36.6854C31.8355 36.5964 32.6198 36.11 33.2519 35.4445L35.738 32.8272C37.416 31.0606 36.9429 28.0319 34.7958 26.796L31.4524 24.8715C30.0426 24.0601 28.3251 24.2984 27.2234 25.4585Z" fill="#7CF724"/>
<path d="M23.2041 3.28971C23.32 2.57415 23.9963 2.08875 24.7119 2.20458C24.7562 2.21307 24.8988 2.23971 24.9734 2.25633C25.1228 2.2896 25.3311 2.34079 25.5908 2.41644C26.1102 2.56771 26.8357 2.81693 27.7065 3.21615C29.45 4.01548 31.7702 5.41373 34.1778 7.82138C36.5855 10.229 37.9837 12.5492 38.7829 14.2927C39.1823 15.1635 39.4315 15.8891 39.5827 16.4084C39.6583 16.6682 39.7096 16.8765 39.7428 17.0258C39.7594 17.1004 39.7717 17.1604 39.7801 17.2047L39.7903 17.2593C39.9059 17.9748 39.425 18.6793 38.7094 18.7952C37.996 18.9107 37.3238 18.4275 37.2051 17.7154C37.2015 17.6962 37.1913 17.6449 37.1806 17.5964C37.1589 17.4995 37.1217 17.3458 37.0625 17.1425C36.9441 16.7359 36.7384 16.1316 36.3968 15.3867C35.7147 13.8986 34.4879 11.8438 32.3216 9.67754C30.1555 7.51128 28.1006 6.28455 26.6126 5.60235C25.8676 5.26082 25.2633 5.05514 24.8566 4.9367C24.6535 4.8775 24.398 4.81886 24.301 4.79728C23.5888 4.67858 23.0886 4.00322 23.2041 3.28971Z" fill="#7CF724"/>
<path fill-rule="evenodd" clip-rule="evenodd" d="M23.6 9.3263C23.7992 8.62931 24.5256 8.22573 25.2226 8.42486L24.8621 9.68687C25.2226 8.42486 25.2226 8.42486 25.2226 8.42486L25.2252 8.42559L25.2279 8.42636L25.2336 8.42806L25.2473 8.43212L25.2819 8.4429C25.3082 8.45134 25.3413 8.46233 25.3805 8.47627C25.459 8.50417 25.563 8.54382 25.6904 8.59842C25.9454 8.70769 26.2936 8.87643 26.7217 9.12967C27.5781 9.63661 28.7475 10.4787 30.1212 11.8524C31.495 13.2261 32.3369 14.3954 32.8439 15.252C33.0971 15.6799 33.2658 16.0282 33.3752 16.2832C33.4298 16.4106 33.4695 16.5145 33.4973 16.5931C33.5113 16.6323 33.5222 16.6653 33.5307 16.6917L33.5414 16.7263L33.5454 16.7399L33.5472 16.7457L33.5479 16.7484C33.5479 16.7484 33.5488 16.7509 32.2867 17.1115L33.5488 16.7509C33.7479 17.4479 33.3442 18.1743 32.6473 18.3735C31.9563 18.5709 31.2361 18.1759 31.0298 17.4898L31.0233 17.4709C31.0141 17.4446 30.9948 17.3928 30.9624 17.3172C30.8977 17.1661 30.7803 16.919 30.585 16.5889C30.1947 15.9296 29.49 14.9335 28.265 13.7085C27.0402 12.4836 26.0439 11.7789 25.3847 11.3887C25.0546 11.1934 24.8075 11.0759 24.6563 11.0112C24.5807 10.9788 24.5289 10.9595 24.5027 10.9501L24.4838 10.9437C23.7978 10.7374 23.4026 10.0174 23.6 9.3263Z" fill="#7CF724"/>
</svg>
