<svg width="42" height="42" viewBox="0 0 42 42" fill="none" xmlns="http://www.w3.org/2000/svg">
<path d="M21 42C32.598 42 42 32.598 42 21C42 9.40202 32.598 0 21 0C9.40202 0 0 9.40202 0 21C0 32.598 9.40202 42 21 42Z" fill="#47B0D3"/>
<path d="M2.79997 21C2.79997 9.87263 11.4549 0.768141 22.3999 0.0474961C21.9371 0.0170625 21.4706 0 21 0C9.40201 0 0 9.40201 0 21C0 32.598 9.40201 42 21 42C21.4706 42 21.9371 41.9829 22.4 41.9525C11.455 41.2319 2.79997 32.1274 2.79997 21Z" fill="#3298BA"/>
<path d="M31.1934 8.94579C30.9895 8.80716 30.7278 8.78616 30.5045 8.89009L7.93873 19.3948C7.54227 19.5795 7.29175 19.9832 7.30168 20.4203C7.31127 20.849 7.57074 21.2341 7.96326 21.4059L28.7674 30.4669C29.4621 30.7826 30.28 30.2856 30.3246 29.5273L31.4988 9.56578C31.5132 9.31985 31.3973 9.08426 31.1934 8.94579Z" fill="#E5E5E5"/>
<path d="M14.0791 24.0697L15.4852 33.4687L31.1036 8.89478L14.0791 24.0697Z" fill="#CCCCCC"/>
<path d="M30.5047 8.89002L7.93876 19.3948C7.55017 19.5757 7.29678 19.9789 7.30146 20.4075C7.30621 20.8367 7.57019 21.2338 7.9632 21.4059L14.0792 24.0695L31.1036 8.89469C30.9161 8.80429 30.6964 8.80077 30.5047 8.89002Z" fill="white"/>
<path d="M17.3429 25.4911L15.4852 33.4687L31.1037 8.89478L17.3429 25.4911Z" fill="#E5E5E5"/>
<path d="M31.1935 8.9458C31.1647 8.92619 31.1344 8.90954 31.1036 8.89478L17.3429 25.4911L28.7674 30.4669C29.462 30.7826 30.28 30.2856 30.3246 29.5274L31.4988 9.56579C31.5132 9.31986 31.3973 9.08427 31.1935 8.9458Z" fill="white"/>
</svg>
