<svg width="42" height="40" viewBox="0 0 42 40" fill="none" xmlns="http://www.w3.org/2000/svg">
<path d="M30.1875 0H11.8125C5.25 0 0 5 0 11.25V28.75C0 35 5.25 40 11.8125 40H30.1875C36.75 40 42 35 42 28.75V11.25C42 5 36.75 0 30.1875 0Z" fill="#3A559F"/>
<path d="M34.7258 19.5692C34.4635 19.3231 34.0699 19.0769 33.6764 19.0769H27.1176V14.4C27.1176 14.2769 27.2488 14.1538 27.38 14.1538H32.3647C33.1517 14.1538 33.6764 13.6615 33.6764 12.9231V9.23077C33.6764 8.49231 33.1517 8 32.3647 8H27.1176C22.7888 8 20.5588 11.3231 20.5588 15.3846V19.0769H15.3118C14.5247 19.0769 14 19.5692 14 20.3077V24C14 24.7385 14.5247 25.2308 15.3118 25.2308H20.5588V40H27.1176V25.2308H31.0529C31.5776 25.2308 32.1023 24.9846 32.2335 24.4923L34.857 20.8C35.1193 20.4308 34.9882 19.9385 34.7258 19.5692Z" fill="white"/>
</svg>
