<svg width="42" height="42" viewBox="0 0 42 42" fill="none" xmlns="http://www.w3.org/2000/svg">
<path d="M21 0C10.6312 0 0 2.23125 0 18.375C0 27.0375 3.01875 32.4188 9.1875 34.9125V39.7687C9.1875 40.6875 9.7125 41.475 10.5 41.8687C10.7625 42 11.1562 42 11.4187 42C11.9437 42 12.6 41.7375 12.9937 41.3438L17.7188 36.6187C18.7688 36.6187 19.8188 36.75 21 36.75C31.3688 36.75 42 34.5188 42 18.375C42 2.23125 31.3688 0 21 0Z" fill="#7B519C"/>
<path d="M20.3438 11.9438C23.4938 11.9438 26.1187 14.5688 26.1187 17.7188C26.1187 18.5063 26.6437 19.0313 27.4312 19.0313C28.2187 19.0313 28.7437 18.5063 28.7437 17.7188C28.7437 13.1251 24.9375 9.31885 20.3438 9.31885C19.5562 9.31885 19.0312 9.84385 19.0312 10.6313C19.0312 11.4188 19.5562 11.9438 20.3438 11.9438Z" fill="white"/>
<path d="M20.3438 16.0125C21.2625 16.0125 22.05 16.8 22.05 17.7187C22.05 18.5062 22.575 19.0312 23.3625 19.0312C24.15 19.0312 24.675 18.5062 24.675 17.7187C24.675 15.3562 22.7062 13.3875 20.3438 13.3875C19.5562 13.3875 19.0312 13.9125 19.0312 14.7C19.0312 15.4875 19.5562 16.0125 20.3438 16.0125Z" fill="white"/>
<path d="M20.3438 5.25C19.5562 5.25 19.0312 5.775 19.0312 6.5625C19.0312 7.35 19.5562 7.875 20.3438 7.875C25.725 7.875 30.1875 12.3375 30.1875 17.7188C30.1875 18.5063 30.7125 19.0312 31.5 19.0312C32.2875 19.0312 32.8125 18.5063 32.8125 17.7188C32.8125 10.8938 27.1687 5.25 20.3438 5.25Z" fill="white"/>
<path d="M28.7437 22.4438L28.4813 22.3125C28.4813 22.3125 25.5938 20.8688 25.0688 20.7375C24.0188 20.3438 22.9688 20.6062 22.3125 21.525L22.1812 21.7875C21.9187 22.1813 21.525 22.7062 21.2625 22.9688C20.6063 22.7062 19.425 22.1812 17.85 20.8687C16.8 19.95 16.0125 18.7688 15.6187 18.1125C15.75 17.9813 15.75 17.9813 15.8813 17.85C16.0125 17.7188 16.1437 17.5875 16.275 17.4563C16.5375 17.1938 16.6687 16.9313 16.9312 16.5375C17.1937 15.8813 17.1937 15.225 16.9312 14.4375C16.8 14.175 16.275 12.9937 15.8813 12.075L15.3562 11.025C14.8312 9.7125 14.0437 9.45 13.125 9.45C12.9937 9.1875 12.8625 9.1875 12.6 9.1875C11.55 9.1875 10.6312 9.58125 9.975 10.2375C9.31875 10.8938 7.875 12.3375 7.875 15.225C7.875 17.5875 9.31875 19.8188 10.1062 21L10.2375 21.1313C12.7313 24.8063 15.8812 27.4312 19.0312 28.7437C21.7875 29.925 23.3625 30.1875 24.4125 30.1875C24.9375 30.1875 25.3312 30.1875 25.5938 30.0562C27.3 29.6625 29.2688 28.4813 29.7938 26.9062C30.0563 25.9875 30.45 24.4125 29.925 23.4937C29.6625 22.9687 29.1375 22.7063 28.7437 22.4438Z" fill="white"/>
</svg>
